<svg viewBox="0 0 120 120" fill="none" xmlns="http://www.w3.org/2000/svg">
  <defs>
    <linearGradient id="ag2-gradient" x1="0%" y1="0%" x2="100%" y2="100%">
      <stop offset="0%" stop-color="#6366f1"/>
      <stop offset="100%" stop-color="#3730a3"/>
    </linearGradient>
  </defs>
  <!-- Background circle -->
  <circle cx="60" cy="60" r="54" fill="url(#ag2-gradient)" opacity="0.15"/>
  <circle cx="60" cy="60" r="54" stroke="url(#ag2-gradient)" stroke-width="3" fill="none"/>
  <!-- Agent connections -->
  <line x1="35" y1="35" x2="85" y2="35" stroke="#6366f1" stroke-width="2.5" opacity="0.6"/>
  <line x1="35" y1="35" x2="35" y2="85" stroke="#6366f1" stroke-width="2.5" opacity="0.6"/>
  <line x1="35" y1="35" x2="60" y2="60" stroke="#6366f1" stroke-width="2.5"/>
  <line x1="85" y1="35" x2="60" y2="60" stroke="#6366f1" stroke-width="2.5"/>
  <line x1="35" y1="85" x2="60" y2="60" stroke="#6366f1" stroke-width="2.5"/>
  <line x1="60" y1="60" x2="85" y2="85" stroke="#6366f1" stroke-width="2.5"/>
  <!-- Arrow -->
  <polygon points="80,80 85,85 78,83" fill="#6366f1"/>
  <!-- Agent nodes -->
  <circle cx="35" cy="35" r="8" fill="#6366f1"/>
  <circle cx="85" cy="35" r="8" fill="#4f46e5"/>
  <circle cx="35" cy="85" r="8" fill="#4f46e5"/>
  <circle cx="60" cy="60" r="10" fill="#3730a3"/>
  <circle cx="85" cy="85" r="8" fill="#312e81"/>
  <!-- Labels -->
  <text x="60" y="64" text-anchor="middle" fill="white" font-size="10" font-weight="bold">M</text>
  <text x="35" y="39" text-anchor="middle" fill="white" font-size="8" font-weight="bold">A</text>
  <text x="85" y="39" text-anchor="middle" fill="white" font-size="8" font-weight="bold">U</text>
  <text x="35" y="89" text-anchor="middle" fill="white" font-size="8" font-weight="bold">C</text>
  <text x="85" y="89" text-anchor="middle" fill="white" font-size="8" font-weight="bold">G</text>
</svg>
